<svg width="60" height="59" viewBox="0 0 60 59" fill="none" xmlns="http://www.w3.org/2000/svg">
<path d="M0.787109 29.2813C0.787109 23.517 2.49538 17.8822 5.69589 13.0894C8.8964 8.29662 13.4454 4.5611 18.7677 2.35522C24.0899 0.149335 29.9464 -0.427824 35.5964 0.696724C41.2465 1.82127 46.4365 4.59702 50.5099 8.67296C54.5834 12.7489 57.3575 17.9419 58.4814 23.5954C59.6052 29.2489 59.0284 35.1089 56.8239 40.4344C54.6193 45.7598 50.886 50.3116 46.0961 53.514C41.3062 56.7165 35.6748 58.4258 29.9141 58.4258C22.1917 58.4172 14.7882 55.3439 9.32766 49.8801C3.86715 44.4163 0.795675 37.0082 0.787109 29.2813H0.787109ZM29.9141 53.944C36.001 53.9497 41.873 51.6922 46.3902 47.6099C45.1259 46.6043 43.6846 45.8442 42.1409 45.369C41.8173 45.246 41.4548 45.1262 41.0147 44.9772L39.8625 44.5886C35.6941 43.18 33.8171 42.0433 33.0112 39.3815C32.9427 39.1626 32.8876 38.9399 32.8462 38.7144C32.5608 37.3119 32.7052 35.856 33.2604 34.537C33.6516 33.6168 34.2549 32.8023 35.021 32.1601C36.037 31.3369 36.8473 30.2882 37.3878 29.0971C37.9282 27.906 38.1838 26.6053 38.1343 25.2982C38.168 24.1852 37.9819 23.0765 37.5868 22.0356C37.1917 20.9947 36.5953 20.0419 35.8318 19.2319C35.0682 18.4219 34.1525 17.7705 33.1371 17.315C32.1217 16.8595 31.0264 16.6089 29.9141 16.5775C28.7983 16.5972 27.6976 16.84 26.677 17.2916C25.6563 17.7431 24.7361 18.3942 23.9705 19.2067C23.205 20.0192 22.6095 20.9766 22.219 22.0227C21.8286 23.0688 21.6511 24.1824 21.697 25.2982C21.6482 26.5843 21.892 27.8647 22.4101 29.0427C22.9281 30.2208 23.7068 31.2657 24.6874 32.0986C25.3874 32.6713 25.9661 33.3781 26.3897 34.1775C27.1331 35.5881 27.3433 37.2195 26.9819 38.7727C26.9507 38.9452 26.9063 39.1152 26.8493 39.2811C26.1437 41.9041 24.3185 43.0278 20.3151 44.3975L18.985 44.8477C18.4672 45.0225 18.0626 45.1715 17.6905 45.3043C16.1437 45.7986 14.7042 46.5809 13.4476 47.6099C17.9626 51.6897 23.8305 53.9469 29.9141 53.944V53.944ZM42.6102 25.2982C42.6565 27.2461 42.2619 29.1792 41.456 30.953C40.6501 32.7268 39.4537 34.2952 37.9563 35.5408C37.7043 35.7437 37.5055 36.0049 37.377 36.3018C37.1825 36.8028 37.1375 37.3496 37.2476 37.8757C37.2571 37.9314 37.2701 37.9866 37.2864 38.0408C37.5162 38.7986 38.5033 39.3944 41.293 40.34L42.4419 40.7221C42.9144 40.8808 43.293 41.0135 43.6587 41.1431C45.776 41.8076 47.7414 42.8839 49.4421 44.3101C52.2508 40.66 53.9817 36.2958 54.4386 31.7119C54.8956 27.1279 54.0603 22.5076 52.0275 18.3743C49.9946 14.241 46.8455 10.76 42.9368 8.32576C39.0282 5.8915 34.5163 4.60128 29.9124 4.60128C25.3085 4.60128 20.7967 5.8915 16.888 8.32576C12.9794 10.76 9.83026 14.241 7.79743 18.3743C5.76459 22.5076 4.92933 27.1279 5.38627 31.7119C5.84322 36.2958 7.57411 40.66 10.3828 44.3101C12.0685 42.8736 14.0189 41.7811 16.1241 41.0945C16.5513 40.9358 16.9914 40.7707 17.5416 40.5958L18.8652 40.1489C21.4543 39.2649 22.3637 38.7014 22.5838 37.9177C22.5838 37.9372 22.5838 37.9016 22.6032 37.8174C22.7286 37.2947 22.6667 36.7447 22.4284 36.263C22.2488 35.9483 22.0078 35.673 21.7197 35.4534C20.2657 34.199 19.1077 32.6376 18.3293 30.8815C17.5509 29.1255 17.1713 27.2186 17.2179 25.2982C17.1715 23.5936 17.4644 21.8968 18.0798 20.3066C18.6952 18.7165 19.6206 17.2647 20.8022 16.036C21.9839 14.8072 23.3981 13.826 24.9624 13.1495C26.5267 12.4731 28.21 12.1148 29.9141 12.0957C31.6142 12.1281 33.2912 12.4954 34.8494 13.1765C36.4077 13.8576 37.8165 14.8392 38.9955 16.0652C40.1745 17.2912 41.1006 18.7377 41.7208 20.3219C42.341 21.9061 42.6432 23.5971 42.6102 25.2982Z" fill="white"/>
</svg>
